HIERARCHY
ROOT Hips
{
 OFFSET 0.000000 0.000000 0.000000
 CHANNELS 6 Xposition Yposition Zposition Yrotation Xrotation Zrotation
 JOINT Chest
 {
  OFFSET 0.000000 9.585900 0.002600
  CHANNELS 3 Yrotation Xrotation Zrotation
  JOINT Chest2
  {
   OFFSET 0.000000 9.601200 -0.005300
   CHANNELS 3 Yrotation Xrotation Zrotation
   JOINT Chest3
   {
    OFFSET 0.000000 9.561800 0.000000
    CHANNELS 3 Yrotation Xrotation Zrotation
    JOINT Chest4
    {
     OFFSET 0.000000 9.552100 0.000000
     CHANNELS 3 Yrotation Xrotation Zrotation
     JOINT Neck
     {
      OFFSET 0.000000 14.453000 0.000000
      CHANNELS 3 Yrotation Xrotation Zrotation
      JOINT Head
      {
       OFFSET 0.000000 8.936500 -0.011300
       CHANNELS 3 Yrotation Xrotation Zrotation
       End Site
       {
        OFFSET 0.000000 17.073600 -0.006000
       }
      }
     }
     JOINT RightCollar
     {
      OFFSET -2.921100 9.558500 0.000000
      CHANNELS 3 Yrotation Xrotation Zrotation
      JOINT RightShoulder
      {
       OFFSET -13.519700 0.000000 0.000000
       CHANNELS 3 Yrotation Xrotation Zrotation
       JOINT RightElbow
       {
        OFFSET 0.000000 -29.696600 0.000000
        CHANNELS 3 Yrotation Xrotation Zrotation
        JOINT RightWrist
        {
         OFFSET 0.000000 -24.004700 0.000000
         CHANNELS 3 Yrotation Xrotation Zrotation
         End Site
         {
          OFFSET 0.000000 -17.728500 0.000000
         }
        }
       }
      }
     }
     JOINT LeftCollar
     {
      OFFSET 2.921100 9.558500 0.000000
      CHANNELS 3 Yrotation Xrotation Zrotation
      JOINT LeftShoulder
      {
       OFFSET 13.519700 0.000000 0.000000
       CHANNELS 3 Yrotation Xrotation Zrotation
       JOINT LeftElbow
       {
        OFFSET 0.000000 -29.696600 0.000000
        CHANNELS 3 Yrotation Xrotation Zrotation
        JOINT LeftWrist
        {
         OFFSET 0.000000 -24.004700 0.000000
         CHANNELS 3 Yrotation Xrotation Zrotation
         End Site
         {
          OFFSET 0.000000 -17.728500 0.000000
         }
        }
       }
      }
     }
    }
   }
  }
 }
 JOINT RightHip
 {
  OFFSET -7.771700 -0.012900 -0.001300
  CHANNELS 3 Yrotation Xrotation Zrotation
  JOINT RightKnee
  {
   OFFSET 0.000000 -40.869800 0.001200
   CHANNELS 3 Yrotation Xrotation Zrotation
   JOINT RightAnkle
   {
    OFFSET 0.000000 -39.717900 0.002100
    CHANNELS 3 Yrotation Xrotation Zrotation
    JOINT RightToe
    {
     OFFSET 0.000000 -4.965400 11.033500
     CHANNELS 3 Yrotation Xrotation Zrotation
     End Site
     {
      OFFSET 0.000000 -1.423100 5.872300
     }
    }
   }
  }
 }
 JOINT LeftHip
 {
  OFFSET 7.771700 -0.012900 -0.001300
  CHANNELS 3 Yrotation Xrotation Zrotation
  JOINT LeftKnee
  {
   OFFSET 0.000000 -40.869800 0.001200
   CHANNELS 3 Yrotation Xrotation Zrotation
   JOINT LeftAnkle
   {
    OFFSET 0.000000 -39.717900 0.002100
    CHANNELS 3 Yrotation Xrotation Zrotation
    JOINT LeftToe
    {
     OFFSET 0.000000 -4.965400 11.033500
     CHANNELS 3 Yrotation Xrotation Zrotation
     End Site
     {
      OFFSET 0.000000 -1.423100 5.872300
     }
    }
   }
  }
 }
}
MOTION
Frames: 5
Frame Time: 0.008333
-9.491289 57.579970 43.729971 -170.447576 -44.389435 -4.620965 -3.966570 27.113725 1.641538 -0.702901 4.889239 0.225037 -1.074185 7.731860 0.321650 -3.144334 22.356359 0.550827 1.996596 13.009690 -2.359956 4.671932 -11.581150 -5.334734 3.310547 -1.544281 -1.307166 10.951055 -19.356985 -26.352565 158.592342 -67.111009 -129.756178 21.624163 11.666987 -28.171882 -5.762404 -1.285863 -1.578847 16.278058 -10.604971 -3.283939 -157.785263 -63.257098 141.295771 -7.277513 4.005706 15.547761 3.735386 -26.578848 -10.053125 -5.522489 68.280793 -3.453843 3.743149 9.093670 7.047630 -0.061312 0.093208 -0.020879 -11.629008 -35.062403 -5.097714 27.477791 63.035005 25.012393 -11.657510 38.289973 4.095602 0.938516 -20.236328 -8.077626
-9.490254 57.578842 43.731708 -170.437612 -44.387520 -4.624550 -3.966521 27.116331 1.640572 -0.694482 4.894055 0.224100 -1.072238 7.728414 0.318062 -3.140542 22.355644 0.551655 1.957932 12.974244 -2.365437 4.602359 -11.656629 -5.342319 3.317660 -1.549783 -1.315123 10.953478 -19.354549 -26.362631 158.657654 -67.139790 -129.806357 21.643986 11.667166 -28.173693 -5.767368 -1.293544 -1.554790 16.294625 -10.606622 -3.256686 -157.899423 -63.267256 141.392255 -7.279431 3.999385 15.543514 3.726585 -26.581464 -10.044887 -5.547031 68.280679 -3.495455 3.746459 9.103680 7.060549 -0.058741 0.095695 -0.022759 -11.644625 -35.065123 -5.093491 27.474442 63.026579 24.998192 -11.645184 38.317121 4.119267 0.937831 -20.266749 -8.094837
-9.488686 57.577852 43.732876 -170.427524 -44.385360 -4.630497 -3.934715 27.125188 1.644647 -0.711561 4.889594 0.229343 -1.078544 7.723320 0.323253 -3.129663 22.351612 0.547051 1.888549 12.905721 -2.401233 4.554877 -11.692881 -5.319747 3.324971 -1.549678 -1.322319 10.948094 -19.348253 -26.373295 158.710458 -67.152133 -129.839721 21.656333 11.668666 -28.174753 -5.775676 -1.293914 -1.528393 16.314686 -10.606529 -3.231348 -158.134339 -63.182430 141.629167 -7.271210 4.092193 15.497148 3.712758 -26.585605 -10.026378 -5.582047 68.280725 -3.557489 3.748885 9.115404 7.078761 -0.056146 0.095678 -0.024397 -11.655180 -35.067535 -5.090923 27.462214 63.020409 24.983452 -11.635087 38.342469 4.138140 0.937868 -20.296803 -8.111057
-9.486538 57.576097 43.734237 -170.398222 -44.375133 -4.653008 -3.935572 27.117375 1.651282 -0.691614 4.889251 0.223651 -1.103614 7.723180 0.333639 -3.123784 22.345852 0.545509 1.849512 12.870456 -2.414511 4.480057 -11.754498 -5.320223 3.324289 -1.545770 -1.321530 10.965093 -19.342091 -26.401795 158.758541 -67.165221 -129.870434 21.669264 11.672889 -28.167696 -5.782688 -1.292069 -1.505679 16.337698 -10.605324 -3.209034 -158.282891 -63.151154 141.767660 -7.281813 4.089188 15.477709 3.690687 -26.592617 -10.008719 -5.599633 68.279403 -3.596262 3.746108 9.119417 7.098361 -0.057126 0.113287 -0.025981 -11.700004 -35.081956 -5.073141 27.464120 63.020936 24.971150 -11.625736 38.363035 4.153652 0.938674 -20.336010 -8.126627
-9.473644 57.573349 43.735353 -170.370310 -44.352113 -4.739250 -3.905150 27.100169 1.730041 -0.697949 4.887732 0.226417 -1.093500 7.718828 0.331005 -3.121585 22.340057 0.543548 1.808221 12.840481 -2.422700 4.407016 -11.812153 -5.320940 3.320319 -1.535912 -1.314062 10.999724 -19.325996 -26.452360 158.850858 -67.171107 -129.909758 21.667401 11.713311 -28.201786 -5.789902 -1.283790 -1.479746 16.361781 -10.602727 -3.189342 -158.457812 -63.065144 141.937142 -7.319352 4.063535 15.458981 3.635438 -26.610610 -9.921166 -5.629318 68.261575 -3.625825 3.748090 9.135929 7.099186 -0.060666 0.117849 -0.027542 -11.810551 -35.104769 -4.962735 27.490261 63.030381 24.967997 -11.562473 38.409691 4.221469 0.901292 -20.406784 -8.161144
